<?xml version="1.0" encoding="UTF-8" standalone="no"?>
<!-- Created with Inkscape (http://www.inkscape.org/) -->

<svg
   width="123.50689mm"
   height="84.129555mm"
   viewBox="0 0 123.50689 84.129555"
   version="1.1"
   id="svg1"
   xml:space="preserve"
   inkscape:version="1.3.2 (091e20ef0f, 2023-11-25)"
   sodipodi:docname="logo.svg"
   xmlns:inkscape="http://www.inkscape.org/namespaces/inkscape"
   xmlns:sodipodi="http://sodipodi.sourceforge.net/DTD/sodipodi-0.dtd"
   xmlns="http://www.w3.org/2000/svg"
   xmlns:svg="http://www.w3.org/2000/svg"><sodipodi:namedview
     id="namedview1"
     pagecolor="#ffffff"
     bordercolor="#000000"
     borderopacity="0.25"
     inkscape:showpageshadow="2"
     inkscape:pageopacity="0.0"
     inkscape:pagecheckerboard="0"
     inkscape:deskcolor="#d1d1d1"
     inkscape:document-units="mm"
     inkscape:zoom="1.4989579"
     inkscape:cx="87.727614"
     inkscape:cy="216.15017"
     inkscape:window-width="1920"
     inkscape:window-height="1012"
     inkscape:window-x="0"
     inkscape:window-y="0"
     inkscape:window-maximized="1"
     inkscape:current-layer="layer1" /><defs
     id="defs1" /><g
     inkscape:label="Calque 1"
     inkscape:groupmode="layer"
     id="layer1"
     transform="translate(-36.039363,-68.928543)"><path
       style="fill:#f87171;fill-opacity:1"
       d="m 99.77719,153.02455 c -4.94771,0.0484 -9.65068,0.0439 -10.45104,-0.0101 -0.80037,-0.054 -3.18162,-0.22089 -5.29167,-0.37088 -2.11005,-0.14998 -5.4438,-0.45684 -7.408335,-0.68191 -1.964532,-0.22507 -5.266123,-0.69536 -7.336871,-1.04509 -2.070747,-0.34973 -5.166372,-0.94977 -6.879166,-1.33341 -1.712795,-0.38364 -4.488387,-1.09646 -6.167984,-1.58404 -1.679597,-0.48758 -4.150469,-1.30501 -5.490826,-1.81651 -1.340357,-0.5115 -3.519441,-1.47271 -4.84241,-2.13604 -1.322968,-0.66332 -3.138346,-1.70265 -4.034174,-2.30963 -0.895828,-0.60698 -2.241813,-1.7151 -2.991077,-2.4625 -0.749265,-0.74739 -1.700662,-2.00378 -2.114217,-2.79197 -0.653826,-1.24613 -0.748718,-1.70921 -0.727398,-3.54975 0.01348,-1.16417 0.225674,-3.48589 0.471531,-5.15938 0.245857,-1.67349 0.743564,-4.29286 1.106015,-5.82083 0.362452,-1.52797 1.139166,-4.20688 1.726032,-5.95313 0.586866,-1.74625 1.943486,-4.96093 3.014712,-7.14375 1.071225,-2.18281 2.744694,-5.19465 3.718819,-6.69297 0.974125,-1.49832 1.727037,-2.748476 1.673138,-2.778116 -0.0539,-0.0297 -1.050499,-0.525171 -2.214666,-1.101161 -1.610684,-0.7969 -2.623364,-1.55588 -4.236324,-3.175 -1.434607,-1.44008 -2.395067,-2.68356 -2.971823,-3.84754 -0.468692,-0.94588 -1.032894,-2.42941 -1.253781,-3.29673 -0.220888,-0.86732 -0.401614,-2.30082 -0.401614,-3.18556 0,-0.88474 0.180726,-2.31824 0.401614,-3.18556 0.220887,-0.86731 0.785089,-2.35085 1.253781,-3.29673 0.575886,-1.16221 1.545169,-2.41795 2.98968,-3.87321 1.77414,-1.78734 2.561774,-2.35813 4.633198,-3.3576 1.372627,-0.6623 3.269592,-1.41404 4.215477,-1.67054 1.244487,-0.33748 2.706963,-0.46637 5.291667,-0.46637 2.584703,0 4.04718,0.12889 5.291667,0.46637 0.945885,0.2565 2.833974,1.00393 4.195752,1.66095 1.995603,0.96282 2.871954,1.58856 4.517071,3.2253 1.122611,1.1169 2.389679,2.64155 2.815706,3.38811 0.774596,1.35739 0.774596,1.35739 3.023554,0.44388 1.236927,-0.50243 3.639082,-1.31632 5.338122,-1.80865 1.69904,-0.49232 4.37795,-1.13633 5.95313,-1.43112 1.57518,-0.29479 4.09696,-0.65727 5.60397,-0.80551 1.50701,-0.14824 4.02447,-0.26952 5.59436,-0.26952 1.5699,0 4.08736,0.12128 5.59437,0.26952 1.507,0.14824 4.02879,0.51072 5.60397,0.80551 1.57518,0.29479 4.25408,0.9388 5.95312,1.43112 1.69904,0.49233 4.1012,1.30622 5.33813,1.80865 2.24896,0.91351 2.24896,0.91351 3.02355,-0.44388 0.42603,-0.74656 1.6931,-2.27121 2.81571,-3.38811 1.64511,-1.63674 2.52147,-2.26248 4.51707,-3.2253 1.36178,-0.65702 3.24987,-1.40445 4.19575,-1.66095 1.24449,-0.33748 2.70696,-0.46637 5.29167,-0.46637 2.5847,0 4.04718,0.12889 5.29166,0.46637 0.94589,0.2565 2.84285,1.00824 4.21548,1.67054 2.07143,0.99947 2.85906,1.57026 4.6332,3.3576 1.44451,1.45526 2.41379,2.711 2.98968,3.87321 0.46869,0.94588 1.03289,2.42942 1.25378,3.29673 0.22089,0.86732 0.40161,2.30082 0.40161,3.18556 0,0.88474 -0.18072,2.31824 -0.40161,3.18556 -0.22089,0.86732 -0.78509,2.35085 -1.25378,3.29673 -0.57676,1.16398 -1.53722,2.40746 -2.97182,3.84754 -1.61296,1.61912 -2.62564,2.3781 -4.23633,3.175 -1.16416,0.57599 -2.16076,1.071511 -2.21466,1.101161 -0.0539,0.0296 0.69901,1.279796 1.67313,2.778116 0.97413,1.49832 2.6476,4.51016 3.71882,6.69297 1.07123,2.18282 2.42785,5.3975 3.01472,7.14375 0.58686,1.74625 1.36358,4.42516 1.72603,5.95313 0.36245,1.52797 0.86016,4.14734 1.10601,5.82083 0.24586,1.67349 0.45805,3.99521 0.47153,5.15938 0.0213,1.84054 -0.0736,2.30362 -0.72739,3.54975 -0.41356,0.78819 -1.36496,2.04458 -2.11422,2.79197 -0.74927,0.7474 -2.09525,1.85552 -2.99108,2.4625 -0.89583,0.60698 -2.7112,1.64631 -4.03417,2.30963 -1.32297,0.66333 -3.50206,1.62454 -4.84241,2.13604 -1.34036,0.5115 -3.81123,1.32893 -5.49083,1.81651 -1.6796,0.48758 -4.45519,1.2004 -6.16798,1.58404 -1.7128,0.38364 -4.80842,0.98368 -6.87917,1.33341 -2.07075,0.34973 -5.37234,0.81889 -7.33687,1.04257 -1.96453,0.22369 -5.06016,0.5351 -6.87917,0.69204 -1.81901,0.15693 -7.35541,0.32496 -12.30312,0.37339 z m 0,-3.96235 c 4.36562,-0.057 9.42578,-0.23003 11.24479,-0.38442 1.81901,-0.15439 4.91464,-0.46372 6.87917,-0.68741 1.96453,-0.22368 5.26612,-0.69284 7.33687,-1.04257 2.07075,-0.34973 5.15419,-0.94745 6.8521,-1.32826 1.69791,-0.38081 4.34251,-1.05226 5.8769,-1.49212 1.53438,-0.43985 3.82363,-1.19426 5.08723,-1.67647 1.26359,-0.48221 3.45028,-1.4492 4.8593,-2.14887 1.40902,-0.69967 3.35867,-1.8793 4.33254,-2.62139 0.98211,-0.74837 2.1137,-1.90315 2.54091,-2.59296 0.59828,-0.96605 0.7597,-1.52178 0.7231,-2.48946 -0.0259,-0.68518 -0.22904,-2.49758 -0.45139,-4.02755 -0.22235,-1.52998 -0.70081,-4.03193 -1.06326,-5.5599 -0.36244,-1.52797 -1.07989,-4.02828 -1.59433,-5.55625 -0.51444,-1.52797 -1.81112,-4.56406 -2.8815,-6.74687 -1.07039,-2.18281 -2.7586,-5.21862 -3.75158,-6.74623 -1.76099,-2.7091 -1.80543,-2.81983 -1.80543,-4.497916 0,-1.348301 0.12576,-1.896741 0.5814,-2.535501 0.37297,-0.52286 1.40467,-1.21379 2.87778,-1.92724 1.67511,-0.81128 2.73961,-1.55711 3.93473,-2.75681 0.90109,-0.90455 1.95623,-2.29948 2.34474,-3.09984 0.38851,-0.80037 0.84353,-2.14132 1.01116,-2.9799 0.25377,-1.2695 0.23139,-1.82213 -0.13377,-3.30183 -0.2412,-0.97743 -0.82349,-2.41741 -1.29396,-3.19996 -0.47048,-0.78254 -1.51026,-2.02577 -2.31063,-2.76272 -0.86525,-0.79671 -2.31331,-1.73799 -3.57187,-2.32184 -1.16417,-0.54006 -2.77151,-1.14027 -3.57188,-1.33379 -0.80036,-0.19352 -2.46724,-0.35185 -3.70416,-0.35185 -1.23693,0 -2.9038,0.15833 -3.70417,0.35185 -0.80036,0.19352 -2.40771,0.7966 -3.57187,1.34017 -1.16417,0.54357 -2.70351,1.51093 -3.42077,2.14969 -0.71725,0.63876 -1.92604,2.12547 -2.68619,3.30381 -0.97658,1.51383 -1.65371,2.27132 -2.30777,2.58169 -0.50911,0.24159 -1.35679,0.43926 -1.88373,0.43926 -0.52693,0 -2.35441,-0.54642 -4.06105,-1.21426 -1.70665,-0.66785 -4.65505,-1.61249 -6.55201,-2.09922 -1.89696,-0.48672 -4.81399,-1.09593 -6.48229,-1.35379 -2.04003,-0.31532 -4.54944,-0.46884 -7.66349,-0.46884 -3.11404,0 -5.62345,0.15352 -7.66348,0.46884 -1.6683,0.25786 -4.58534,0.86707 -6.48229,1.35379 -1.89696,0.48673 -4.84537,1.43137 -6.552012,2.09922 -1.706646,0.66784 -3.534121,1.21426 -4.061056,1.21426 -0.526935,0 -1.374611,-0.19767 -1.883726,-0.43926 -0.654064,-0.31037 -1.331186,-1.06786 -2.307767,-2.58169 -0.760157,-1.17834 -1.968946,-2.66505 -2.686198,-3.30381 -0.717252,-0.63876 -2.256595,-1.60612 -3.420761,-2.14969 -1.164167,-0.54357 -2.771511,-1.14665 -3.571875,-1.34017 -0.800365,-0.19352 -2.46724,-0.35185 -3.704167,-0.35185 -1.236927,0 -2.903802,0.15833 -3.704167,0.35185 -0.800364,0.19352 -2.407708,0.79373 -3.571875,1.33379 -1.258558,0.58385 -2.706616,1.52513 -3.571875,2.32184 -0.800364,0.73695 -1.840144,1.98018 -2.310621,2.76272 -0.470478,0.78255 -1.052763,2.22253 -1.293967,3.19996 -0.365152,1.4797 -0.387542,2.03233 -0.133771,3.30183 0.16763,0.83858 0.622655,2.17953 1.011167,2.9799 0.388511,0.80036 1.443644,2.19529 2.34474,3.09984 1.195113,1.1997 2.259619,1.94553 3.934725,2.75681 1.473108,0.71345 2.504808,1.40438 2.877778,1.92724 0.456094,0.63939 0.581408,1.18704 0.581408,2.540891 0,1.675026 -0.0504,1.803516 -1.712432,4.365616 -0.941838,1.45189 -2.395254,3.95375 -3.229813,5.55967 -0.834559,1.60593 -1.998188,4.13282 -2.58584,5.61532 -0.587653,1.48249 -1.426281,3.96976 -1.863619,5.52726 -0.437338,1.55749 -0.979436,3.81523 -1.204663,5.01719 -0.225226,1.20196 -0.563916,3.45673 -0.752643,5.01061 -0.339972,2.79914 -0.337136,2.83728 0.307039,4.12997 0.421273,0.84539 1.215947,1.76253 2.257159,2.60501 0.883837,0.71515 2.329021,1.69034 3.211519,2.16709 0.882499,0.47675 2.564915,1.30553 3.738704,1.84173 1.173789,0.5362 3.392048,1.39577 4.929465,1.91014 1.537416,0.51438 4.208449,1.2898 5.935629,1.72316 1.727181,0.43336 4.68814,1.08664 6.579911,1.45173 1.891771,0.36509 5.225521,0.90469 7.408334,1.19911 2.182812,0.29442 5.33797,0.66616 7.01146,0.82608 1.67349,0.15992 4.65005,0.39348 6.61458,0.51903 1.96453,0.12554 7.14375,0.18159 11.50938,0.12454 z"
       id="path1" /></g></svg>
